<?xml version="1.0" encoding="UTF-8"?>
<svg width="342px" height="342px" viewBox="0 0 342 342" version="1.1" xmlns="http://www.w3.org/2000/svg" xmlns:xlink="http://www.w3.org/1999/xlink">
    <!-- Generator: Sketch 43.2 (39069) - http://www.bohemiancoding.com/sketch -->
    <title>Group</title>
    <desc>Created with Sketch.</desc>
    <defs></defs>
    <g id="Page-1" stroke="none" stroke-width="1" fill="none" fill-rule="evenodd">
        <g id="Group">
            <circle id="Oval" fill="#1E5621" cx="171" cy="171" r="171"></circle>
            <path d="M146.320312,118.875 L145.148438,143.25 C145.070312,144.26563 145.011719,145.222652 144.972656,146.121094 C144.933594,147.019536 144.914062,147.937495 144.914062,148.875 C144.914062,151.687514 144.191413,153.738275 142.746094,155.027344 C141.300774,156.316413 139.054703,156.960938 136.007812,156.960938 C133.117173,156.960938 131.02735,156.199226 129.738281,154.675781 C128.449212,153.152336 127.804688,150.63283 127.804688,147.117188 L127.804688,142.546875 L129.328125,110.203125 C129.40625,107.390611 130.167962,105.320319 131.613281,103.992188 C133.058601,102.664056 135.304672,102 138.351562,102 L205.382812,102 C209.992211,102 213.468738,102.878897 215.8125,104.636719 C218.156262,106.39454 219.328125,108.953108 219.328125,112.3125 C219.328125,114.031259 218.957035,115.847647 218.214844,117.761719 C217.472653,119.675791 216.398445,121.726552 214.992188,123.914062 L145.851562,224.460938 L200.109375,224.460938 L201.515625,197.039062 L201.515625,196.570312 C201.906252,187.585893 204.874972,183.09375 210.421875,183.09375 C213.312514,183.09375 215.421868,183.894523 216.75,185.496094 C218.078132,187.097664 218.742188,189.656232 218.742188,193.171875 L218.625,194.636719 C218.546875,195.613286 218.507812,196.570308 218.507812,197.507812 L216.867188,233.015625 C216.789062,235.906264 216.046882,237.957025 214.640625,239.167969 C213.234368,240.378912 211.007828,240.984375 207.960938,240.984375 L134.367188,240.984375 C131.007796,240.984375 128.273448,240.007822 126.164062,238.054688 C124.054677,236.101553 123,233.562516 123,230.4375 C123,228.562491 123.468745,226.492199 124.40625,224.226562 C125.343755,221.960926 126.789053,219.382827 128.742188,216.492188 L196.007812,118.875 L146.320312,118.875 Z" id="Z" fill="#FFFFFF"></path>
        </g>
    </g>
</svg>