<?xml version="1.0" encoding="UTF-8"?>
<svg width="149px" height="132px" viewBox="0 0 149 132" version="1.1" xmlns="http://www.w3.org/2000/svg" xmlns:xlink="http://www.w3.org/1999/xlink">
    <!-- Generator: Sketch 43.2 (39069) - http://www.bohemiancoding.com/sketch -->
    <title>Group</title>
    <desc>Created with Sketch.</desc>
    <defs></defs>
    <g id="Page-1" stroke="none" stroke-width="1" fill="none" fill-rule="evenodd">
        <g id="Group" fill-rule="nonzero" fill="#427C53">
            <path d="M69,6 L69,126 C69,129.313708 71.6862915,132 75,132 C78.3137085,132 81,129.313708 81,126 L81,6 C81,2.6862915 78.3137085,0 75,0 C71.6862915,0 69,2.6862915 69,6 Z" id="Line"></path>
            <path d="M23,102 L143,102 C146.313708,102 149,99.3137085 149,96 C149,92.6862915 146.313708,90 143,90 L23,90 C19.6862915,90 17,92.6862915 17,96 C17,99.3137085 19.6862915,102 23,102 Z" id="Line"></path>
            <path d="M26.020096,101.184498 L129.020096,41.1844981 C131.883415,39.5165451 132.852451,35.8432233 131.184498,32.979904 C129.516545,30.1165848 125.843223,29.147549 122.979904,30.8155019 L19.979904,90.8155019 C17.1165848,92.4834549 16.147549,96.1567767 17.8155019,99.020096 C19.4834549,101.883415 23.1567767,102.852451 26.020096,101.184498 Z" id="Line"></path>
            <path d="M6,42 L126,42 C129.313708,42 132,39.3137085 132,36 C132,32.6862915 129.313708,30 126,30 L6,30 C2.6862915,30 0,32.6862915 0,36 C0,39.3137085 2.6862915,42 6,42 Z" id="Line"></path>
        </g>
    </g>
</svg>